<?xml version="1.0" encoding="UTF-8"?>
<svg version="1.1" xmlns="http://www.w3.org/2000/svg" width="256" height="256" viewBox="0 0 1024 1024">

<path d="M0 0 C5.92687284 3.15710918 11.01838565 7.30594622 16.125 11.625 C17.62524008 12.87757516 19.12655662 14.12886208 20.62890625 15.37890625 C21.3677002 15.9939502 22.10649414 16.60899414 22.86767578 17.24267578 C25.8921676 19.73526705 28.96948039 22.15582511 32.0625 24.5625 C37.09226718 28.48129186 42.06053966 32.46796832 47 36.5 C51.96232244 40.54982067 56.9515402 44.55805194 62 48.5 C67.73257432 52.97611967 73.38605958 57.5429008 79.01489258 62.14868164 C82.2957465 64.82698682 85.59298546 67.47513882 88.94921875 70.05859375 C89.57892578 70.54457031 90.20863281 71.03054688 90.85742188 71.53125 C92.03260767 72.43427431 93.21197105 73.33190223 94.39648438 74.22265625 C98.7213196 77.54864803 103.24802872 81.09827554 104.6640625 86.5625 C104.59272924 91.01369571 104.28558237 93.5091553 102 97.4375 C95.43216434 103.0475263 86.3359819 104.27620516 78.11621094 106.21704102 C76.10730592 106.69168054 74.1004514 107.17434018 72.09375 107.65820312 C62.28716351 110 62.28716351 110 60 110 C76.15501367 147.13762288 97.13510247 183.66355677 126.8515625 211.75 C128 213 128 213 128 215 C128.53496094 215.20496094 129.06992187 215.40992188 129.62109375 215.62109375 C132.96953382 217.56197937 135.40899612 220.29113246 138.0625 223.0625 C156.3530332 241.71177159 179.01234955 256.73274261 202 269 C202.61891113 269.33209473 203.23782227 269.66418945 203.87548828 270.00634766 C229.32060076 283.53268157 256.74620171 293.35936597 284.875 299.5 C285.98456055 299.74331055 287.09412109 299.98662109 288.23730469 300.23730469 C297.33393491 302.10684915 306.49143733 303.15051106 315.78857422 302.89648438 C319 303 319 303 321 305 C339.19530879 307.89160829 376.3878906 311.3060547 393 303 C394.77566108 302.83089811 396.55538929 302.70356083 398.3359375 302.59765625 C404.91670702 302.08925801 411.19597058 300.90044145 417.625 299.4375 C418.79087646 299.17283936 419.95675293 298.90817871 421.15795898 298.63549805 C457.55202413 290.14265132 490.8090171 275.51659316 522 255 C522.65129883 254.57396484 523.30259766 254.14792969 523.97363281 253.70898438 C540.69396586 242.70340192 556.30842 230.04551253 570.2421875 215.65234375 C573 213 573 213 575 213 C575.24621094 212.42507813 575.49242187 211.85015625 575.74609375 211.2578125 C577.19793053 208.64360173 578.90287549 206.93663792 581.0625 204.875 C583.91571933 202.22095 583.91571933 202.22095 586 199 C586.66 199 587.32 199 588 199 C588.34224609 198.20335937 588.34224609 198.20335937 588.69140625 197.390625 C590.42477401 194.22399494 592.66987065 191.54086804 594.9375 188.75 C635.40752637 137.93028388 654.53012625 79.03155207 660 15 C664.05393699 14.03136709 667.83073043 13.87897429 671.9934082 13.88647461 C673.01862831 13.88625557 673.01862831 13.88625557 674.06455994 13.8860321 C676.31000001 13.88672538 678.55535577 13.89449026 680.80078125 13.90234375 C682.36305191 13.90421001 683.92532315 13.90563293 685.4875946 13.90663147 C689.58930084 13.91044028 693.69097139 13.92025654 697.79266357 13.93133545 C701.98221351 13.9415848 706.17176925 13.94613663 710.36132812 13.95117188 C718.57423509 13.96188033 726.7871131 13.97893703 735 14 C730.62406295 100.75219748 699.84862086 181.07322728 643 247 C642.07767578 248.07507813 642.07767578 248.07507813 641.13671875 249.171875 C623.75306307 269.25227917 623.75306307 269.25227917 616 276 C615.34 276 614.68 276 614 276 C614 276.66 614 277.32 614 278 C612.70703125 279.33984375 612.70703125 279.33984375 610.8125 280.9375 C610.07515625 281.56269531 609.3378125 282.18789063 608.578125 282.83203125 C607.72734375 283.54746094 606.8765625 284.26289062 606 285 C605.06671875 285.80824219 604.1334375 286.61648438 603.171875 287.44921875 C581.49523457 306.16995367 558.0184297 322.09506142 533 336 C532.37174316 336.35175293 531.74348633 336.70350586 531.09619141 337.06591797 C487.85599636 361.13632927 439.09582668 374.87213002 390 380 C389.10506836 380.0942627 388.21013672 380.18852539 387.28808594 380.28564453 C376.38076602 381.27834916 365.44338909 381.2426492 354.5 381.25 C352.93714264 381.25151062 352.93714264 381.25151062 351.3427124 381.25305176 C334.35050246 381.24197364 317.83582092 380.42527815 301 378 C299.9594043 377.86078125 298.91880859 377.7215625 297.84667969 377.578125 C280.6092932 375.25904965 263.82277971 371.37150142 247 367 C246.18660156 366.79294434 245.37320312 366.58588867 244.53515625 366.37255859 C193.44630422 353.21366391 146.07385369 325.92398924 105.74414062 292.43554688 C104.18370974 291.15120566 102.60102979 289.89400784 101.015625 288.640625 C95.10413501 283.95927165 89.74825736 278.91807682 84.5012207 273.515625 C81.48661994 270.42013662 78.38740739 267.69401192 75 265 C73.84011913 263.76092021 72.71285446 262.49027205 71.625 261.1875 C69.38619018 258.56268848 67.10965506 256.0801308 64.625 253.6875 C60.0113682 249.12490395 56.01598948 244.08592657 52 239 C51.53352051 238.41524902 51.06704102 237.83049805 50.58642578 237.22802734 C15 192.46779682 15 192.46779682 15 183 C14.01 183 13.02 183 12 183 C11.87866699 182.26547607 11.75733398 181.53095215 11.63232422 180.77416992 C11.01431219 178.06279129 10.17611661 176.06180373 8.8828125 173.61328125 C8.44557861 172.76934814 8.00834473 171.92541504 7.55786133 171.0559082 C7.08501709 170.1505835 6.61217285 169.24525879 6.125 168.3125 C1.67749124 159.61671309 -2.37820555 150.80607476 -6.1875 141.8125 C-6.66880371 140.68432861 -7.15010742 139.55615723 -7.64599609 138.39379883 C-11 130.38431969 -11 130.38431969 -11 127 C-12.13429443 127.30292969 -13.26858887 127.60585938 -14.43725586 127.91796875 C-18.67799034 129.04735422 -22.92248175 130.16202151 -27.16821289 131.27246094 C-28.99933564 131.75352818 -30.82943986 132.23849087 -32.65844727 132.72753906 C-35.29960991 133.43300087 -37.94421427 134.12400501 -40.58984375 134.8125 C-41.39646957 135.03123779 -42.2030954 135.24997559 -43.03416443 135.4753418 C-49.63698979 137.16984919 -56.066952 138.41220829 -62.375 135.375 C-66.19400035 131.91971397 -67.80014832 129.0212847 -68.30859375 123.87890625 C-67.91237223 118.89855215 -66.26896835 115.24899199 -64.1875 110.75 C-63.26278359 108.68760635 -62.33832734 106.62509605 -61.4140625 104.5625 C-60.88071289 103.38429688 -60.34736328 102.20609375 -59.79785156 100.9921875 C-57.7624787 96.48596135 -55.7672551 91.96223355 -53.7734375 87.4375 C-53.00317393 85.68953446 -52.23291026 83.94156897 -51.46264648 82.19360352 C-51.06939178 81.3011795 -50.67613708 80.40875549 -50.27096558 79.48928833 C-48.64269587 75.79840933 -47.00882909 72.11001902 -45.37516785 68.42152405 C-41.9132483 60.6045622 -38.46261318 52.78294613 -35.03800964 44.94955444 C-33.31762191 41.01511274 -31.59276317 37.08263811 -29.86764526 33.15026855 C-29.04683913 31.27583351 -28.2282131 29.40044212 -27.41189575 27.52404785 C-26.27243235 24.90544585 -25.12529262 22.29032866 -23.9765625 19.67578125 C-23.64709122 18.91302383 -23.31761993 18.15026642 -22.97816467 17.36439514 C-18.4740457 7.16730496 -13.0240376 -4.34802486 0 0 Z " fill="#358ECA" transform="translate(152,521)"/>
<path d="M0 0 C1.04291702 0.00040787 1.04291702 0.00040787 2.10690308 0.00082397 C13.54563519 0.02102147 24.95321076 0.39005262 36.375 1 C37.08659271 1.03493561 37.79818542 1.06987122 38.53134155 1.10586548 C48.84531291 1.62688191 58.70672082 3.09012322 68.8125 5.1875 C69.92842529 5.40543213 71.04435059 5.62336426 72.1940918 5.84790039 C110.45790473 13.32754195 145.96146721 25.61453924 180.8125 43.1875 C181.6876123 43.62449219 182.56272461 44.06148437 183.46435547 44.51171875 C203.60827917 54.61281839 222.20163852 67.15032339 239.8125 81.1875 C240.61042969 81.81140625 241.40835938 82.4353125 242.23046875 83.078125 C247.43532421 87.17745302 252.42716624 91.44773274 257.3203125 95.9140625 C258.94970111 97.40043268 260.58997594 98.87497873 262.2421875 100.3359375 C271.69417571 108.70079607 280.67187044 117.53354828 288.8125 127.1875 C289.64265625 128.14011719 290.4728125 129.09273437 291.328125 130.07421875 C297.51608272 137.20918968 303.17153475 144.58525003 308.54003906 152.35302734 C309.83472974 154.21954801 311.14647311 156.07314499 312.4609375 157.92578125 C331.23933144 184.56544913 345.82436462 213.33444198 357.70605469 243.61328125 C358.79075858 246.35102988 358.79075858 246.35102988 360.8125 249.1875 C361.69397705 248.94515625 362.5754541 248.7028125 363.48364258 248.453125 C366.80390075 247.5474615 370.12707428 246.65450659 373.45288086 245.76953125 C374.88259406 245.38643175 376.31103162 244.99853415 377.73803711 244.60546875 C397.52762545 239.16350549 397.52762545 239.16350549 405.75 242.3125 C409.46775294 245.6922754 411.57890846 248.48703278 412.2734375 253.54296875 C412.11221633 260.112544 408.80534442 265.94378666 406.125 271.8125 C405.52733093 273.15059054 404.93125161 274.48939215 404.33666992 275.82885742 C403.10552965 278.59912366 401.8676942 281.3662462 400.625 284.13134766 C397.89279693 290.2258871 395.26585396 296.36542889 392.625 302.5 C387.62912445 314.03564785 382.60951857 325.56104405 377.57064819 337.07797241 C376.78410973 338.87683862 375.99861869 340.67616324 375.21426392 342.47598267 C361.82949316 373.17900342 361.82949316 373.17900342 353.8125 377.1875 C351.9296875 377.42578125 351.9296875 377.42578125 349.6875 377.5 C348.96304688 377.53738281 348.23859375 377.57476562 347.4921875 377.61328125 C340.27209775 376.46606582 334.92597002 371.92024219 329.6875 367.125 C324.82496952 362.78926906 319.91090454 358.60154218 314.75 354.625 C309.95904405 350.92439954 305.31878406 347.09659047 300.75 343.125 C295.79361503 338.82080731 290.72715399 334.72982058 285.49584961 330.76538086 C282.03889718 328.14328323 278.65710011 325.4512723 275.3125 322.6875 C271.35043771 319.41750099 267.32980191 316.24526869 263.25 313.125 C255.00815001 306.81006966 255.00815001 306.81006966 251.1875 303.8125 C250.41148437 303.20664062 249.63546875 302.60078125 248.8359375 301.9765625 C245.64608185 299.1561882 244.03100572 297.01470021 242.9375 292.875 C242.75406818 287.46376132 244.22266233 283.92186837 247.875 279.9375 C255.35632399 275.48054103 264.86733357 274.0892184 273.25 272 C274.32443359 271.72736328 275.39886719 271.45472656 276.50585938 271.17382812 C277.53388672 270.91666016 278.56191406 270.65949219 279.62109375 270.39453125 C280.54720459 270.1622583 281.47331543 269.92998535 282.42749023 269.69067383 C284.8125 269.1875 284.8125 269.1875 287.8125 269.1875 C282.55657401 256.07704773 276.64263178 243.55062182 269.8125 231.1875 C269.44592285 230.52314941 269.0793457 229.85879883 268.70166016 229.17431641 C255.72698889 205.79593645 240.23716164 183.67394006 220.8125 165.1875 C218.27554614 162.67074482 215.76172919 160.13532539 213.26953125 157.57421875 C207.4412936 151.62545624 201.46748943 146.20686784 194.8125 141.1875 C193.87833252 140.46336914 193.87833252 140.46336914 192.92529297 139.72460938 C129.02871828 90.23505914 45.79341598 67.34096354 -34.5 77.375 C-64.22794075 81.46619143 -92.65501882 89.28451074 -120.1875 101.1875 C-120.93563965 101.50734863 -121.6837793 101.82719727 -122.45458984 102.15673828 C-147.47082949 112.99148554 -170.32637802 127.92881287 -191.05078125 145.54296875 C-193.1875 147.1875 -193.1875 147.1875 -196.1875 148.1875 C-196.1875 148.8475 -196.1875 149.5075 -196.1875 150.1875 C-197.62329102 151.60644531 -197.62329102 151.60644531 -199.62890625 153.265625 C-211.18735234 163.10238396 -221.94727158 174.14720237 -231.1875 186.1875 C-232.06005304 187.27280517 -232.93521347 188.35601747 -233.8125 189.4375 C-274.9642223 240.42327358 -293.72618338 301.49840895 -298.1875 366.1875 C-322.9375 366.1875 -347.6875 366.1875 -373.1875 366.1875 C-373.1875 344.96363941 -373.1875 344.96363941 -372.0625 335 C-371.93198242 333.82711426 -371.80146484 332.65422852 -371.66699219 331.44580078 C-363.67269435 264.29192635 -338.01622158 199.4729854 -296.1875 146.1875 C-295.33236141 145.06714743 -294.47825368 143.94600752 -293.625 142.82421875 C-287.70564893 135.09718075 -281.4007087 127.88089516 -274.71240234 120.81396484 C-273.16077965 119.159 -271.63419783 117.48398045 -270.11328125 115.80078125 C-264.88871804 110.02916082 -259.60040548 104.53729875 -253.72265625 99.4140625 C-250.95855248 96.98642128 -248.29977559 94.46307043 -245.625 91.9375 C-238.2596575 85.11249075 -230.24346124 79.16405027 -222.1875 73.1875 C-221.46256348 72.64303223 -220.73762695 72.09856445 -219.99072266 71.53759766 C-179.17924154 40.91761238 -131.85561764 20.32360525 -82.1875 9.1875 C-80.9816626 8.90616211 -80.9816626 8.90616211 -79.75146484 8.61914062 C-68.3767335 5.9819357 -56.892895 4.40735481 -45.3125 3 C-44.61625519 2.91514343 -43.92001038 2.83028687 -43.20266724 2.74285889 C-28.80404872 1.00745058 -14.51124803 -0.00974325 0 0 Z " fill="#368ECA" transform="translate(501.1875,117.8125)"/>
<path d="M0 0 C0.66 0 1.32 0 2 0 C2.20411499 0.78914795 2.20411499 0.78914795 2.41235352 1.59423828 C4.8404654 10.32238961 8.41909895 18.54579062 11.9375 26.875 C12.61407348 28.4863633 13.29033895 30.09785595 13.96630859 31.70947266 C19.41794607 44.68935331 24.93624661 57.64072514 30.51855469 70.56494141 C32.04173284 74.09676682 33.55639832 77.63216352 35.0703125 81.16796875 C47.64155448 110.4528725 60.91551994 139.4107122 75 168 C75.34973877 168.71043457 75.69947754 169.42086914 76.05981445 170.15283203 C84.3540876 186.99033466 92.70119644 203.77175513 101.80859375 220.1875 C106.00475133 227.77365007 110.0200312 235.45628128 114.0625 243.125 C119.00712216 252.50177147 123.97400758 261.85932593 129.125 271.125 C132.5275081 277.25039638 135.77577136 283.42291926 138.87133789 289.70874023 C141.84983195 295.74639119 144.94698948 301.71954517 148.0625 307.6875 C148.57635254 308.67363281 149.09020508 309.65976562 149.61962891 310.67578125 C151.82837138 314.90181822 154.04782296 319.11821861 156.359375 323.2890625 C156.86392212 324.202323 156.86392212 324.202323 157.37866211 325.1340332 C158.24075792 326.68355182 159.11402287 328.22684223 159.98828125 329.76953125 C160.32214844 330.50558594 160.65601563 331.24164062 161 332 C160.67 332.66 160.34 333.32 160 334 C159.47792969 333.67837891 158.95585938 333.35675781 158.41796875 333.02539062 C134.6922679 316.64852117 134.6922679 316.64852117 108 308 C109.34191406 308.74443359 109.34191406 308.74443359 110.7109375 309.50390625 C118.10803997 313.64299375 125.16204067 317.97582298 132 323 C133.46071332 324.05499796 134.92167484 325.10965232 136.3828125 326.1640625 C145.93220377 333.09135568 155.09983637 340.25799062 164 348 C165.01707031 348.82371094 166.03414062 349.64742187 167.08203125 350.49609375 C180.17952559 361.73504137 187.82613906 378.31561173 195.88671875 393.25390625 C197.94603344 397.06872355 200.03124221 400.86716135 202.14453125 404.65234375 C202.64557373 405.55202881 203.14661621 406.45171387 203.6628418 407.37866211 C204.61229923 409.08083684 205.56538241 410.78099608 206.52270508 412.47875977 C208.81524739 416.60188525 210.52476949 420.50405941 212 425 C212.66 425.33 213.32 425.66 214 426 C210.71023192 427.09658936 209.28696233 426.79953138 206 426 C206.66 425.34 207.32 424.68 208 424 C204.73024615 422.12311303 201.45899264 420.24885428 198.1875 418.375 C197.27806641 417.85292969 196.36863281 417.33085938 195.43164062 416.79296875 C159.31078061 396.11601001 121.44480585 376.503423 82 363 C80.98615234 362.6488916 79.97230469 362.2977832 78.92773438 361.93603516 C75.64265665 360.80148291 72.35365937 359.67927929 69.0625 358.5625 C68.02456299 358.20768555 66.98662598 357.85287109 65.91723633 357.48730469 C64.9455249 357.1627832 63.97381348 356.83826172 62.97265625 356.50390625 C61.67726929 356.06800171 61.67726929 356.06800171 60.35571289 355.62329102 C57.76164015 354.82947656 57.76164015 354.82947656 54 355 C54 354.34 54 353.68 54 353 C52.783125 352.87625 51.56625 352.7525 50.3125 352.625 C46.91391556 352.27938124 44.13663989 351.35133698 41 350 C41.20496094 349.154375 41.40992188 348.30875 41.62109375 347.4375 C41.89050781 346.303125 42.15992188 345.16875 42.4375 344 C42.70433594 342.88625 42.97117187 341.7725 43.24609375 340.625 C48.4171622 315.7610025 45.28727586 288.4809127 31.8828125 266.69140625 C26.15083437 258.49776947 18.23064129 251.32446026 8.19140625 249.28125 C-1.94684809 247.98008367 -11.20066288 248.94620044 -19.625 255.0625 C-34.89912619 267.9348643 -40.89261053 286.53932976 -42.68359375 305.88671875 C-43.87735692 320.69822479 -42.41173408 335.76736223 -38 350 C-41.89200999 351.14689517 -45.78574081 352.20567522 -49.73046875 353.15625 C-102.22816561 365.95629939 -153.12909348 391.80346412 -199.67041016 418.91479492 C-204.03399666 421.43680543 -208.09533837 423.67047189 -213 425 C-211.57289042 421.24047028 -209.87676113 417.74012039 -207.98046875 414.1953125 C-207.37726807 413.06681885 -206.77406738 411.9383252 -206.15258789 410.77563477 C-205.49782393 409.55861372 -204.8427877 408.34173912 -204.1875 407.125 C-203.85297821 406.50196991 -203.51845642 405.87893982 -203.17379761 405.23703003 C-198.22634613 396.02610993 -193.16608438 386.88610834 -187.98925781 377.80175781 C-183.5654869 370.03259419 -179.24277749 362.21012396 -174.9375 354.375 C-169.70391141 344.85322417 -164.41195793 335.36919037 -158.98022461 325.95849609 C-153.98299429 317.29052298 -149.25552169 308.47889391 -144.51196289 299.67041016 C-139.62213183 290.60045216 -134.66169829 281.57898649 -129.5625 272.625 C-123.075978 261.22745052 -116.87303742 249.68542448 -110.68017578 238.12646484 C-108.09885332 233.32314961 -105.48920531 228.53547788 -102.875 223.75 C-102.3905542 222.86223877 -101.9061084 221.97447754 -101.40698242 221.05981445 C-98.90123202 216.47061232 -96.38790659 211.88568474 -93.8671875 207.3046875 C-88.43904966 197.42518884 -83.14777703 187.5135824 -78.18115234 177.39453125 C-75.60297665 172.16783691 -72.98398928 166.96135957 -70.375 161.75 C-68.77630558 158.5530893 -67.17796573 155.35600506 -65.58105469 152.15820312 C-64.49208489 149.982954 -63.39872565 147.80989861 -62.30175781 145.63867188 C-61.76131836 144.56681641 -61.22087891 143.49496094 -60.6640625 142.390625 C-60.17631348 141.42672852 -59.68856445 140.46283203 -59.18603516 139.46972656 C-57.91623964 136.95809062 -57.91623964 136.95809062 -57 134 C-53.45566346 135.41773462 -52.66193881 136.67612238 -51 140 C-50.43410156 140.27328125 -49.86820313 140.5465625 -49.28515625 140.828125 C-46.25181233 142.38368598 -43.99651525 144.50106516 -41.4375 146.75 C-36.64154396 150.88575677 -31.79030055 154.0345302 -26.08203125 156.84375 C-24 158 -24 158 -23 160 C-21.02253397 160.73080266 -19.01927511 161.39421747 -17 162 C-16.01 162.33 -15.02 162.66 -14 163 C-16.45264589 161.15895764 -18.91300959 159.32852207 -21.375 157.5 C-22.07367188 156.97535156 -22.77234375 156.45070313 -23.4921875 155.91015625 C-24.1625 155.41386719 -24.8328125 154.91757812 -25.5234375 154.40625 C-26.14138184 153.94541016 -26.75932617 153.48457031 -27.39599609 153.00976562 C-28.9661943 151.82241608 -28.9661943 151.82241608 -31 152 C-31.33 151.01 -31.66 150.02 -32 149 C-33.59408698 147.58528397 -35.25106865 146.24075901 -36.9375 144.9375 C-40.99093975 141.67562319 -44.95111054 138.3695931 -48.75 134.8125 C-49.59046875 134.03519531 -50.4309375 133.25789062 -51.296875 132.45703125 C-53 130 -53 130 -52.78686523 127.30273438 C-51.90372251 123.59589143 -50.60550403 120.19117332 -49.11328125 116.69921875 C-48.82017059 115.99924271 -48.52705994 115.29926666 -48.22506714 114.57807922 C-47.26031629 112.27859811 -46.28643801 109.98310318 -45.3125 107.6875 C-44.62811546 106.06077675 -43.94428613 104.43381981 -43.26098633 102.80664062 C-40.03688657 95.1392069 -36.78347767 87.48424026 -33.5234375 79.83203125 C-32.6891133 77.87321421 -31.85479209 75.91439592 -31.02056885 73.95553589 C-30.46405495 72.6491818 -29.9072095 71.34296891 -29.35003662 70.03689575 C-23.11144603 55.40335074 -17.10855293 40.67403947 -11.12768555 25.93359375 C-7.58220105 17.20910464 -4.03606087 8.51219453 0 0 Z " fill="#358FCA" transform="translate(506,260)"/>
<path d="M0 0 C2.2331729 -0.00223342 4.46588549 -0.02061462 6.69897461 -0.03930664 C8.12931149 -0.04223346 9.55965067 -0.04422301 10.98999023 -0.04516602 C12.26769287 -0.0492749 13.54539551 -0.05338379 14.86181641 -0.05761719 C18.00952148 0.18530273 18.00952148 0.18530273 21.00952148 2.18530273 C13.9157086 3.00734215 6.88955979 3.37954123 -0.24829102 3.50170898 C-1.79188797 3.53288063 -1.79188797 3.53288063 -3.3666687 3.56468201 C-6.61621177 3.62945536 -9.86582747 3.68872255 -13.11547852 3.74780273 C-15.33423567 3.79105683 -17.5529858 3.83467318 -19.77172852 3.87866211 C-25.17790435 3.98506138 -30.58415054 4.08695432 -35.99047852 4.18530273 C-35.99047852 3.85530273 -35.99047852 3.52530273 -35.99047852 3.18530273 C-24.74588501 -0.83062352 -11.82108764 -0.00132627 0 0 Z " fill="#4595C9" transform="translate(500.990478515625,117.814697265625)"/>
<path d="M0 0 C4.33769533 0.11989186 8.67523658 0.24420989 13.01269531 0.37231445 C14.48271396 0.41514455 15.95276601 0.45684581 17.42285156 0.49731445 C26.30839413 0.74278817 35.14855483 1.13502065 44 2 C43.67 2.66 43.34 3.32 43 4 C42.40388916 3.96970703 41.80777832 3.93941406 41.19360352 3.90820312 C25.45173866 3.12897707 9.7599632 2.86933704 -6 3 C-6 2.67 -6 2.34 -6 2 C-4.02 1.67 -2.04 1.34 0 1 C0 0.67 0 0.34 0 0 Z " fill="#5CA3D3" transform="translate(485,190)"/>
<path d="M0 0 C3.20822288 4.10093573 5.42636691 8.4850639 7.75 13.125 C8.17410156 13.94871094 8.59820313 14.77242188 9.03515625 15.62109375 C9.62876953 16.80251953 9.62876953 16.80251953 10.234375 18.0078125 C10.59756836 18.72598145 10.96076172 19.44415039 11.33496094 20.18408203 C11.55442383 20.78333496 11.77388672 21.38258789 12 22 C11.67 22.66 11.34 23.32 11 24 C7.13532814 20.5060751 5.42863419 16.08685656 3.25 11.4375 C2.82589844 10.56158203 2.40179687 9.68566406 1.96484375 8.78320312 C1.56910156 7.94595703 1.17335938 7.10871094 0.765625 6.24609375 C0.22083496 5.09645142 0.22083496 5.09645142 -0.33496094 3.92358398 C-0.55442383 3.28880127 -0.77388672 2.65401855 -1 2 C-0.67 1.34 -0.34 0.68 0 0 Z " fill="#4294C9" transform="translate(570,408)"/>
<path d="M0 0 C3.07184758 3.70172169 5.06821752 7.84044699 7.1875 12.125 C7.55552734 12.85332031 7.92355469 13.58164062 8.30273438 14.33203125 C11 19.74657931 11 19.74657931 11 22 C7.45147667 20.81715889 7.31812183 20.27553627 5.703125 17.0703125 C5.30222656 16.27496094 4.90132812 15.47960937 4.48828125 14.66015625 C3.87533203 13.40525391 3.87533203 13.40525391 3.25 12.125 C2.61384766 10.88169922 2.61384766 10.88169922 1.96484375 9.61328125 C1.37123047 8.41638672 1.37123047 8.41638672 0.765625 7.1953125 C0.40243164 6.46328613 0.03923828 5.73125977 -0.33496094 4.97705078 C-1 3 -1 3 0 0 Z " fill="#4093C8" transform="translate(582,432)"/>
<path d="M0 0 C0.33 0.99 0.66 1.98 1 3 C-1.70619936 1.93392147 -4.2926083 0.8473348 -6.875 -0.5 C-12.76770005 -3.09700651 -19.65098262 -3.30544855 -26 -4 C-26 -4.33 -26 -4.66 -26 -5 C-16.93471311 -6.45535554 -7.21290605 -6.51904708 0 0 Z " fill="#4999CD" transform="translate(527,512)"/>
<path d="M0 0 C7.89843054 -0.66435397 13.59081933 0.08132646 20 5 C20.33 5.66 20.66 6.32 21 7 C20.32453125 6.79503906 19.6490625 6.59007812 18.953125 6.37890625 C18.06109375 6.10949219 17.1690625 5.84007812 16.25 5.5625 C15.36828125 5.29566406 14.4865625 5.02882813 13.578125 4.75390625 C12.72734375 4.50511719 11.8765625 4.25632812 11 4 C10.27296875 3.78214844 9.5459375 3.56429687 8.796875 3.33984375 C6.90642474 2.79443755 6.90642474 2.79443755 5 4 C3.35 2.68 1.7 1.36 0 0 Z " fill="#4596CB" transform="translate(605,564)"/>
<path d="M0 0 C3.54433654 1.41773462 4.33806119 2.67612238 6 6 C6.928125 6.4640625 6.928125 6.4640625 7.875 6.9375 C10.73797489 8.36898744 12.12430451 10.45441327 14 13 C10.28053558 13 9.59485764 12.11128458 6.875 9.6875 C6.17117188 9.07261719 5.46734375 8.45773437 4.7421875 7.82421875 C3 6 3 6 2 3 C0.68 4.32 -0.64 5.64 -2 7 C-1.34 4.69 -0.68 2.38 0 0 Z " fill="#4A98CC" transform="translate(449,394)"/>
<path d="M0 0 C0.33 0 0.66 0 1 0 C1 1.65 1 3.3 1 5 C2.299375 4.95875 3.59875 4.9175 4.9375 4.875 C9.6702913 4.88250046 14.58723667 5.15806531 19 7 C19.33 7.99 19.66 8.98 20 10 C17.36 10 14.72 10 12 10 C12 9.34 12 8.68 12 8 C10.1746875 7.814375 10.1746875 7.814375 8.3125 7.625 C4.93520941 7.21108694 2.10243305 6.45426549 -1 5 C-0.67 3.35 -0.34 1.7 0 0 Z " fill="#4B98CC" transform="translate(548,605)"/>
<path d="M0 0 C-3.48187753 2.32125169 -6.87171039 3.15122685 -10.875 4.125 C-11.58269531 4.30675781 -12.29039062 4.48851562 -13.01953125 4.67578125 C-16.74802173 5.59922489 -20.1557375 6.22613309 -24 6 C-23.01 5.67 -22.02 5.34 -21 5 C-21 4.34 -21 3.68 -21 3 C-13.82140651 0.95938459 -7.47394574 -0.37369729 0 0 Z " fill="#4F9ACC" transform="translate(610,887)"/>
<path d="M0 0 C0.33 0.66 0.66 1.32 1 2 C-14.56036446 6.59225513 -14.56036446 6.59225513 -23 6 C-23 5.67 -23 5.34 -23 5 C-20.69 5 -18.38 5 -16 5 C-16 4.34 -16 3.68 -16 3 C-14.27318563 2.49193553 -12.54342021 1.99389533 -10.8125 1.5 C-9.84957031 1.2215625 -8.88664062 0.943125 -7.89453125 0.65625 C-5.14654124 0.03322392 -2.80401584 -0.12302812 0 0 Z " fill="#4897CB" transform="translate(116,652)"/>
<path d="M0 0 C2.25051296 3.37576945 3.9605629 6.90443884 5.6875 10.5625 C6.02072266 11.24763672 6.35394531 11.93277344 6.69726562 12.63867188 C7.52750869 14.3975444 8.27081437 16.19688481 9 18 C8.67 18.66 8.34 19.32 8 20 C4.71758871 18.35879435 3.80638304 14.88782259 2.3125 11.6875 C1.97927734 11.01009766 1.64605469 10.33269531 1.30273438 9.63476562 C-0.4306187 5.94823714 -1.2808127 3.87984189 0 0 Z " fill="#4293C9" transform="translate(561,388)"/>
<path d="M0 0 C0.33 0 0.66 0 1 0 C1.02705308 2.41674224 1.04686438 4.8331794 1.0625 7.25 C1.07087891 7.93191406 1.07925781 8.61382812 1.08789062 9.31640625 C1.10428392 12.69342554 1.05628768 15.77291639 0 19 C-0.66 19 -1.32 19 -2 19 C-2 21.64 -2 24.28 -2 27 C-2.33 27 -2.66 27 -3 27 C-3.15366997 20.60348741 -2.64846374 14.72301098 -1.5 8.4375 C-1.35691406 7.61958984 -1.21382812 6.80167969 -1.06640625 5.95898438 C-0.71771688 3.97145496 -0.35983915 1.98554104 0 0 Z " fill="#529DCE" transform="translate(133,426)"/>
<path d="M0 0 C4.90568208 -0.33096806 7.95446868 0.58192606 12.3125 2.8125 C13.36050781 3.33457031 14.40851562 3.85664063 15.48828125 4.39453125 C18 6 18 6 19 9 C14.53202662 7.60121198 10.36177921 5.86369228 6.125 3.875 C4.97257813 3.33617187 3.82015625 2.79734375 2.6328125 2.2421875 C1.76398437 1.83226562 0.89515625 1.42234375 0 1 C0 0.67 0 0.34 0 0 Z " fill="#4695CA" transform="translate(627,217)"/>
<path d="M0 0 C6.69920873 -0.16356156 12.9561169 0.42397869 19.5625 1.5 C20.93245117 1.71462891 20.93245117 1.71462891 22.33007812 1.93359375 C24.55442736 2.28296798 26.7775921 2.63851822 29 3 C29 3.33 29 3.66 29 4 C25.29108609 3.88951407 21.58313189 3.75902886 17.875 3.625 C16.82828125 3.5940625 15.7815625 3.563125 14.703125 3.53125 C9.4655217 3.33235367 4.89494631 3.08331625 0 1 C0 0.67 0 0.34 0 0 Z " fill="#3185BF" transform="translate(440,895)"/>
<path d="M0 0 C2.58789062 1.12304688 2.58789062 1.12304688 5.17578125 2.24609375 C6.75711021 2.89961942 8.37675406 3.45891802 10 4 C11.1875 7.0625 11.1875 7.0625 12 10 C7.0664883 7.64593858 2.48021842 5.13615289 -2 2 C-1.34 1.34 -0.68 0.68 0 0 Z " fill="#4998CB" transform="translate(655,584)"/>
<path d="M0 0 C-3.09852301 2.06568201 -6.19392874 3.60295419 -9.5625 5.1875 C-10.71878906 5.73792969 -11.87507813 6.28835938 -13.06640625 6.85546875 C-14.03449219 7.23316406 -15.00257813 7.61085938 -16 8 C-16.66 7.67 -17.32 7.34 -18 7 C-13.41007877 1.9146587 -6.81895696 -0.6993802 0 0 Z " fill="#4596CB" transform="translate(389,636)"/>
<path d="M0 0 C3.75730247 1.6281644 6.616823 4.01401917 9.75 6.625 C11.22726563 7.85089844 11.22726563 7.85089844 12.734375 9.1015625 C13.85585937 10.04128906 13.85585937 10.04128906 15 11 C14.01 11.33 13.02 11.66 12 12 C9.3359375 10.48828125 9.3359375 10.48828125 6.375 8.3125 C5.39273438 7.60738281 4.41046875 6.90226563 3.3984375 6.17578125 C1.01202264 4.01090653 0.29763062 3.13929437 0 0 Z " fill="#4495CB" transform="translate(212,569)"/>
<path d="M0 0 C0.66 0.33 1.32 0.66 2 1 C-4.82926829 9.30894309 -4.82926829 9.30894309 -8 11 C-9.32 10.67 -10.64 10.34 -12 10 C-8.04 6.7 -4.08 3.4 0 0 Z " fill="#4494CA" transform="translate(276,193)"/>
<path d="M0 0 C0.68835938 0.05220703 1.37671875 0.10441406 2.0859375 0.15820312 C3.76612758 0.28655098 5.44564749 0.42362225 7.125 0.5625 C7.125 0.8925 7.125 1.2225 7.125 1.5625 C4.22952736 1.89925279 1.33368928 2.23201734 -1.5625 2.5625 C-2.37912109 2.65789062 -3.19574219 2.75328125 -4.03710938 2.8515625 C-8.00360052 3.30120522 -11.87502463 3.69284543 -15.875 3.5625 C-13.875 0.5625 -13.875 0.5625 -11.2421875 -0.15234375 C-7.44472772 -0.47393837 -3.78554978 -0.31913065 0 0 Z " fill="#4F9BCD" transform="translate(470.875,192.4375)"/>
<path d="M0 0 C4.40434446 -0.16939786 7.15305585 -0.06701477 11 2 C12.74363045 2.72387082 14.49394279 3.43181952 16.25 4.125 C17.14203125 4.47820313 18.0340625 4.83140625 18.953125 5.1953125 C19.62859375 5.46085938 20.3040625 5.72640625 21 6 C17.13786444 7.28737852 15.46441532 6.43069741 11.625 5.1875 C10.50351562 4.83042969 9.38203125 4.47335937 8.2265625 4.10546875 C5.44231307 3.1515431 2.71869942 2.12515463 0 1 C0 0.67 0 0.34 0 0 Z " fill="#529DCF" transform="translate(371,878)"/>
<path d="M0 0 C0.66 0.99 1.32 1.98 2 3 C0.625 6.6875 0.625 6.6875 -1 10 C-1.66 10 -2.32 10 -3 10 C-3.103125 10.639375 -3.20625 11.27875 -3.3125 11.9375 C-3.539375 12.618125 -3.76625 13.29875 -4 14 C-4.99 14.33 -5.98 14.66 -7 15 C-5.45454854 9.52067211 -2.84456788 4.88570819 0 0 Z " fill="#4394CA" transform="translate(425,443)"/>
<path d="M0 0 C3 1 3 1 4 3 C4.1328125 4.875 4.1328125 4.875 4.125 7 C4.12757813 7.70125 4.13015625 8.4025 4.1328125 9.125 C4 11 4 11 3 13 C2.34 13 1.68 13 1 13 C0.67 13.66 0.34 14.32 0 15 C0 10.05 0 5.1 0 0 Z " fill="#4291C7" transform="translate(909,365)"/>
<path d="M0 0 C0.33 0 0.66 0 1 0 C1.36203841 5.67193509 0.66422132 10.89083483 -2 16 C-2.99 16.33 -3.98 16.66 -5 17 C-4.35083537 10.99522721 -2.14204997 5.599219 0 0 Z " fill="#4596CB" transform="translate(798,615)"/>
<path d="M0 0 C4.89839668 -0.34884724 7.65895937 0.53207378 11.875 3 C12.84179688 3.556875 13.80859375 4.11375 14.8046875 4.6875 C15.52914062 5.120625 16.25359375 5.55375 17 6 C17 6.66 17 7.32 17 8 C11.08030998 6.24009216 5.58365008 3.60305395 0 1 C0 0.67 0 0.34 0 0 Z " fill="#4293C9" transform="translate(626,571)"/>
<path d="M0 0 C2.67438936 2.38335287 4.15158012 4.87036148 5.75 8.0625 C6.19859375 8.94035156 6.6471875 9.81820312 7.109375 10.72265625 C7.40328125 11.47417969 7.6971875 12.22570312 8 13 C7.67 13.66 7.34 14.32 7 15 C3.09147574 11.67775438 0.18595826 7.18500958 -0.25 2.0625 C-0.1675 1.381875 -0.085 0.70125 0 0 Z " fill="#4595C9" transform="translate(640,543)"/>
<path d="M0 0 C-3.72925783 3.2428329 -8.30238735 5.5119901 -13 7 C-13.99 6.67 -14.98 6.34 -16 6 C-14.68 5.67 -13.36 5.34 -12 5 C-12 4.34 -12 3.68 -12 3 C-10.75823305 2.29773859 -9.50614401 1.61370891 -8.25 0.9375 C-7.55390625 0.55464844 -6.8578125 0.17179688 -6.140625 -0.22265625 C-3.63859372 -1.1312406 -2.4667645 -0.88336837 0 0 Z " fill="#4695C9" transform="translate(668,865)"/>
<path d="M0 0 C2.25 0.0625 2.25 0.0625 5 1 C8.03789974 5.3036913 9.48255634 8.69620248 10 14 C6.71534104 11.20803989 4.98678042 7.76803183 3 4 C3 3.34 3 2.68 3 2 C2.01 2 1.02 2 0 2 C0 1.34 0 0.68 0 0 Z " fill="#4795C9" transform="translate(164,702)"/>
<path d="M0 0 C0.33 0 0.66 0 1 0 C0.91266027 2.08410658 0.80447722 4.16734669 0.6875 6.25 C0.62949219 7.41015625 0.57148437 8.5703125 0.51171875 9.765625 C-0.01711803 13.10819638 -0.73772333 14.5497057 -3 17 C-3.21008403 4.81512605 -3.21008403 4.81512605 0 0 Z " fill="#4293C8" transform="translate(882,572)"/>
<path d="M0 0 C2 2 2 2 2.23046875 4.13671875 C2.14543039 9.18490511 1.86552185 14.02324935 1 19 C0.67 19 0.34 19 0 19 C-0.69508823 12.48755792 -1.31909709 6.4489191 0 0 Z " fill="#4998CA" transform="translate(883,552)"/>
<path d="M0 0 C10.55808656 3.07517084 10.55808656 3.07517084 15 5 C14.01 5.66 13.02 6.32 12 7 C9.3359375 6.42578125 9.3359375 6.42578125 6.375 5.3125 C5.39273438 4.95800781 4.41046875 4.60351562 3.3984375 4.23828125 C1 3 1 3 0 0 Z " fill="#4A98CB" transform="translate(632,140)"/>
<path d="M0 0 C2.72869407 0.03287583 5.2966618 0.56397771 8 1 C8 1.33 8 1.66 8 2 C5.69 2.33 3.38 2.66 1 3 C1.350625 3.598125 1.70125 4.19625 2.0625 4.8125 C3 7 3 7 2 10 C1.34 9.67 0.68 9.34 0 9 C-0.73075648 6.6859378 -1.40138258 4.35171131 -2 2 C-1.34 1.34 -0.68 0.68 0 0 Z " fill="#4698CE" transform="translate(211,628)"/>
<path d="M0 0 C0.33 0 0.66 0 1 0 C1 3.63 1 7.26 1 11 C0.34 11 -0.32 11 -1 11 C-1.33 13.64 -1.66 16.28 -2 19 C-2.33 19 -2.66 19 -3 19 C-2.54240047 12.4491015 -1.7899856 6.3246158 0 0 Z " fill="#3188C0" transform="translate(878,590)"/>
<path d="M0 0 C-0.33 0.66 -0.66 1.32 -1 2 C-4.47325181 3.1577506 -7.36067448 3.06866652 -11 3 C-11.33 3.66 -11.66 4.32 -12 5 C-13.32 4.34 -14.64 3.68 -16 3 C-13.89936424 2.30178583 -11.79434263 1.61675528 -9.6875 0.9375 C-8.51574219 0.55464844 -7.34398437 0.17179688 -6.13671875 -0.22265625 C-3 -1 -3 -1 0 0 Z " fill="#4E9ACD" transform="translate(604,813)"/>
<path d="M0 0 C0.33 0 0.66 0 1 0 C1.34833144 4.87664009 0.41685712 7.77050005 -2 12 C-2.66 12 -3.32 12 -4 12 C-4.33 13.32 -4.66 14.64 -5 16 C-5.33 15.34 -5.66 14.68 -6 14 C-5.09176973 11.56442428 -4.13171929 9.23804483 -3.0625 6.875 C-2.77181641 6.21628906 -2.48113281 5.55757813 -2.18164062 4.87890625 C-1.46139802 3.24950495 -0.73158857 1.62433868 0 0 Z " fill="#4997CB" transform="translate(163,332)"/>
<path d="M0 0 C0.88042969 0.36609375 1.76085937 0.7321875 2.66796875 1.109375 C4.8125 2.25 4.8125 2.25 5.8125 4.25 C0.69884986 3.1818153 -4.25977969 2.01892524 -9.1875 0.25 C-5.58660824 -2.13380713 -3.87722314 -1.67230304 0 0 Z " fill="#4B99CC" transform="translate(606.1875,206.75)"/>
<path d="M0 0 C0 0.33 0 0.66 0 1 C-1.87387477 1.3396019 -3.74916697 1.67138691 -5.625 2 C-6.66914062 2.185625 -7.71328125 2.37125 -8.7890625 2.5625 C-11.90574865 2.98715797 -14.85930812 3.07545206 -18 3 C-16.68 2.67 -15.36 2.34 -14 2 C-14 1.34 -14 0.68 -14 0 C-8.97703996 -1.13016601 -5.02125926 -0.77916092 0 0 Z " fill="#519BCC" transform="translate(570,896)"/>
<path d="M0 0 C2.96659857 3.55991828 5.381348 7.65222543 7 12 C6.67 12.66 6.34 13.32 6 14 C3.01380463 11.44040397 1.51448438 8.6059152 0 5 C-0.1875 2.125 -0.1875 2.125 0 0 Z " fill="#4999CD" transform="translate(217,645)"/>
<path d="M0 0 C-3.55991828 2.96659857 -7.65222543 5.381348 -12 7 C-12.66 6.67 -13.32 6.34 -14 6 C-10.27760272 1.65720317 -5.71590529 -0.50434458 0 0 Z " fill="#4898CD" transform="translate(357,651)"/>
<path d="M0 0 C2.48982535 2.27745789 4.10368997 4.62335238 5.75 7.5625 C6.19859375 8.34753906 6.6471875 9.13257813 7.109375 9.94140625 C7.40328125 10.62074219 7.6971875 11.30007813 8 12 C7.67 12.66 7.34 13.32 7 14 C2.95510987 10.65250472 1.40885839 6.93100435 0 2 C0 1.34 0 0.68 0 0 Z " fill="#4A98CC" transform="translate(615,496)"/>
<path d="M0 0 C1.35814777 4.0744433 -0.05254238 6.81468116 -1.4375 10.6875 C-1.68048828 11.38939453 -1.92347656 12.09128906 -2.17382812 12.81445312 C-2.7744944 14.54578532 -3.38619719 16.27328137 -4 18 C-6.046875 14.28125 -6.046875 14.28125 -5.625 11.75 C-5.41875 11.1725 -5.2125 10.595 -5 10 C-4.34 10 -3.68 10 -3 10 C-3 8.02 -3 6.04 -3 4 C-2.34 4 -1.68 4 -1 4 C-0.67 2.68 -0.34 1.36 0 0 Z " fill="#539FD1" transform="translate(220,388)"/>
<path d="M0 0 C-1.78524649 1.19713017 -3.5784028 2.38247279 -5.375 3.5625 C-6.87160156 4.55443359 -6.87160156 4.55443359 -8.3984375 5.56640625 C-9.25695312 6.03949219 -10.11546875 6.51257813 -11 7 C-11.66 6.67 -12.32 6.34 -13 6 C-5.74729569 -1.78994167 -5.74729569 -1.78994167 0 0 Z " fill="#4896CB" transform="translate(704,846)"/>
<path d="M0 0 C-1 2 -1 2 -2.734375 2.62109375 C-5.28144284 3.04706889 -7.66856169 3.09646629 -10.25 3.0625 C-11.14203125 3.05347656 -12.0340625 3.04445313 -12.953125 3.03515625 C-13.62859375 3.02355469 -14.3040625 3.01195312 -15 3 C-12.35005657 1.59499644 -9.84288215 0.55703916 -6.9375 -0.1875 C-6.26589844 -0.36667969 -5.59429688 -0.54585937 -4.90234375 -0.73046875 C-3 -1 -3 -1 0 0 Z " fill="#509CCD" transform="translate(587,818)"/>
<path d="M0 0 C0.58652344 0.35449219 1.17304688 0.70898438 1.77734375 1.07421875 C-0.1768666 1.93777653 -2.13616972 2.78981809 -4.09765625 3.63671875 C-5.18820312 4.11238281 -6.27875 4.58804688 -7.40234375 5.078125 C-8.33304687 5.40683594 -9.26375 5.73554687 -10.22265625 6.07421875 C-10.88265625 5.74421875 -11.54265625 5.41421875 -12.22265625 5.07421875 C-9.35446025 1.5311531 -4.4969253 -1.87306027 0 0 Z " fill="#4A98CD" transform="translate(401.22265625,629.92578125)"/>
<path d="M0 0 C1 2 1 2 0.328125 4.12890625 C-0.02765625 4.93199219 -0.3834375 5.73507812 -0.75 6.5625 C-1.09546875 7.36816406 -1.4409375 8.17382812 -1.796875 9.00390625 C-3 11 -3 11 -6 12 C-5.57405412 10.55903414 -5.13373367 9.12231288 -4.6875 7.6875 C-4.44386719 6.88699219 -4.20023437 6.08648438 -3.94921875 5.26171875 C-2.95817977 2.90035427 -1.91925057 1.66120007 0 0 Z " fill="#4494C8" transform="translate(94,621)"/>
<path d="M0 0 C1.67588141 2.51382212 2.94030311 4.82947288 4.1875 7.5625 C4.55230469 8.34753906 4.91710937 9.13257813 5.29296875 9.94140625 C5.52628906 10.62074219 5.75960937 11.30007813 6 12 C5.67 12.66 5.34 13.32 5 14 C4.896875 13.360625 4.79375 12.72125 4.6875 12.0625 C4.460625 11.381875 4.23375 10.70125 4 10 C3.01 9.67 2.02 9.34 1 9 C-0.25 5.5625 -0.25 5.5625 -1 2 C-0.67 1.34 -0.34 0.68 0 0 Z " fill="#4797CB" transform="translate(847,335)"/>
<path d="M0 0 C2.24956302 2.24956302 3.00510965 4.06323263 4.1875 7 C4.55230469 7.886875 4.91710937 8.77375 5.29296875 9.6875 C6 12 6 12 5 14 C2.25445276 11.62884556 1.04882814 9.46920075 0 6 C-0.125 2.6875 -0.125 2.6875 0 0 Z " fill="#4D9ACC" transform="translate(520,294)"/>
<path d="M0 0 C0.33 0 0.66 0 1 0 C0.85769192 1.41702513 0.71099254 2.8336096 0.5625 4.25 C0.48128906 5.03890625 0.40007813 5.8278125 0.31640625 6.640625 C0.02365007 8.82364639 -0.42064419 10.8773182 -1 13 C-1.66 13 -2.32 13 -3 13 C-3.33 13.66 -3.66 14.32 -4 15 C-3.88590407 13.54077307 -3.75834456 12.08259402 -3.625 10.625 C-3.55539062 9.81289063 -3.48578125 9.00078125 -3.4140625 8.1640625 C-3 6 -3 6 -1 4 C-0.3574765 1.93125966 -0.3574765 1.93125966 0 0 Z " fill="#4A99CB" transform="translate(877,601)"/>
<path d="M0 0 C2.74792483 3.40219265 6 7.48464588 6 12 C3 11 3 11 1.796875 9.2578125 C1.45140625 8.55398438 1.1059375 7.85015625 0.75 7.125 C0.39421875 6.42632813 0.0384375 5.72765625 -0.328125 5.0078125 C-1 3 -1 3 0 0 Z " fill="#4596CB" transform="translate(652,565)"/>
<path d="M0 0 C-3.40219265 2.74792483 -7.48464588 6 -12 6 C-11 3 -11 3 -8.25 1.3125 C-5.14979295 0.06049331 -3.28328088 -0.28970125 0 0 Z " fill="#4696CC" transform="translate(336,662)"/>
<path d="M0 0 C0.33 0 0.66 0 1 0 C1.42820102 3.63970867 0.97413512 5.04569463 -0.875 8.3125 C-1.926875 9.6428125 -1.926875 9.6428125 -3 11 C-3.66 11 -4.32 11 -5 11 C-3.77782954 6.95743617 -2.37245704 3.50711041 0 0 Z " fill="#4695C9" transform="translate(393,503)"/>
<path d="M0 0 C3 1 3 1 4.203125 3.21484375 C4.54859375 4.11332031 4.8940625 5.01179687 5.25 5.9375 C5.78367188 7.28134766 5.78367188 7.28134766 6.328125 8.65234375 C7 11 7 11 6 13 C4.99491199 11.21118264 3.99607264 9.41885304 3 7.625 C2.1646875 6.12839844 2.1646875 6.12839844 1.3125 4.6015625 C0 2 0 2 0 0 Z " fill="#4C98CC" transform="translate(159,689)"/>
<path d="M0 0 C0.99 0.66 1.98 1.32 3 2 C1.54735962 2.8638129 0.0876837 3.71580454 -1.375 4.5625 C-2.59316406 5.27599609 -2.59316406 5.27599609 -3.8359375 6.00390625 C-4.55007813 6.33261719 -5.26421875 6.66132812 -6 7 C-6.66 6.67 -7.32 6.34 -8 6 C-5.63379989 3.38472619 -3.057952 1.73559438 0 0 Z " fill="#4596CB" transform="translate(321,667)"/>
<path d="M0 0 C1 2 1 2 0.58203125 3.875 C-1.51579094 9.66797093 -1.51579094 9.66797093 -4.1875 11.5 C-4.785625 11.665 -5.38375 11.83 -6 12 C-4.43358249 7.69235185 -2.31663844 3.93828536 0 0 Z " fill="#4C99CD" transform="translate(321,633)"/>
<path d="M0 0 C-2.85584773 1.90389849 -4.9311762 2.69462177 -8.1875 3.625 C-9.08855469 3.88539063 -9.98960937 4.14578125 -10.91796875 4.4140625 C-11.94857422 4.70410156 -11.94857422 4.70410156 -13 5 C-12 2 -12 2 -9.875 0.8125 C-6.48581699 -0.14531259 -3.50528139 -0.13746202 0 0 Z " fill="#4998CC" transform="translate(421,623)"/>
<path d="M0 0 C0.66 0.99 1.32 1.98 2 3 C-1.625 9.875 -1.625 9.875 -5 11 C-3.77472971 6.94718288 -2.30119506 3.55639236 0 0 Z " fill="#4696CA" transform="translate(384,519)"/>
<path d="M0 0 C1 2 1 2 0.22265625 4.3828125 C-0.16019531 5.28773438 -0.54304687 6.19265625 -0.9375 7.125 C-1.31777344 8.03507812 -1.69804688 8.94515625 -2.08984375 9.8828125 C-2.39019531 10.58148438 -2.69054687 11.28015625 -3 12 C-4.078125 10.23046875 -4.078125 10.23046875 -5 8 C-2.75510204 1.37755102 -2.75510204 1.37755102 0 0 Z " fill="#4998CB" transform="translate(904,392)"/>
<path d="M0 0 C1.75 0.125 1.75 0.125 4 1 C6.3125 3.875 6.3125 3.875 8 7 C7.67 7.99 7.34 8.98 7 10 C5.82739389 8.71372289 4.6620717 7.42080217 3.5 6.125 C2.8503125 5.40570313 2.200625 4.68640625 1.53125 3.9453125 C0 2 0 2 0 0 Z " fill="#4796CB" transform="translate(740,301)"/>
<path d="M0 0 C4.17148265 -0.19402245 7.28944583 -0.01430083 11 2 C11.33 2.99 11.66 3.98 12 5 C10.37276701 4.54965877 8.74826336 4.08944646 7.125 3.625 C5.76761719 3.24214844 5.76761719 3.24214844 4.3828125 2.8515625 C2 2 2 2 0 0 Z " fill="#4B99CE" transform="translate(602,627)"/>
<path d="M0 0 C-2.85410334 1.50560497 -5.68124642 2.63216796 -8.75 3.625 C-9.54921875 3.88539063 -10.3484375 4.14578125 -11.171875 4.4140625 C-11.77515625 4.60742188 -12.3784375 4.80078125 -13 5 C-12 2 -12 2 -9.3125 0.25 C-5.62569316 -1.14124787 -3.75749535 -0.98410592 0 0 Z " fill="#4E9DD0" transform="translate(501,508)"/>
<path d="M0 0 C0.763125 0.20625 1.52625 0.4125 2.3125 0.625 C-2.83035714 5.05357143 -2.83035714 5.05357143 -6.6875 5.625 C-6.375 3.75 -6.375 3.75 -5.6875 1.625 C-2.6875 -0.375 -2.6875 -0.375 0 0 Z " fill="#4596CB" transform="translate(303.6875,677.375)"/>
<path d="M0 0 C2 1 2 1 2.75 2.875 C3 5 3 5 1 8 C0.67 6.35 0.34 4.7 0 3 C-2.64 3.33 -5.28 3.66 -8 4 C-6 2 -6 2 -2.875 1.875 C-1.92625 1.91625 -0.9775 1.9575 0 2 C0 1.34 0 0.68 0 0 Z " fill="#519ED1" transform="translate(141,645)"/>
<path d="M0 0 C0 0.66 0 1.32 0 2 C-3.63 2.66 -7.26 3.32 -11 4 C-10.34 3.67 -9.68 3.34 -9 3 C-9 2.34 -9 1.68 -9 1 C-5.8035914 -0.06546953 -3.34252724 -0.07427838 0 0 Z " fill="#4797CC" transform="translate(449,613)"/>
<path d="M0 0 C0.33 0.66 0.66 1.32 1 2 C0.22265625 4.1640625 0.22265625 4.1640625 -0.9375 6.625 C-1.31777344 7.44226563 -1.69804688 8.25953125 -2.08984375 9.1015625 C-2.39019531 9.72804688 -2.69054687 10.35453125 -3 11 C-3.66 10.01 -4.32 9.02 -5 8 C-2.70833333 1.35416667 -2.70833333 1.35416667 0 0 Z " fill="#4796CB" transform="translate(882,443)"/>
<path d="M0 0 C-2.6860286 1.79068573 -4.6626589 2.66055791 -7.6875 3.625 C-8.49574219 3.88539063 -9.30398438 4.14578125 -10.13671875 4.4140625 C-10.75160156 4.60742188 -11.36648438 4.80078125 -12 5 C-11 2 -11 2 -8.8125 0.8125 C-5.74609689 -0.07334979 -3.17561845 -0.14770318 0 0 Z " fill="#4A99CE" transform="translate(396,212)"/>
<path d="M0 0 C0 0.66 0 1.32 0 2 C0.66 2.33 1.32 2.66 2 3 C-3.28 2.67 -8.56 2.34 -14 2 C-14 1.67 -14 1.34 -14 1 C-12.04175306 0.83232136 -10.08339945 0.66588795 -8.125 0.5 C-6.48917969 0.36078125 -6.48917969 0.36078125 -4.8203125 0.21875 C-3.21670436 0.09437042 -1.60842449 0 0 0 Z " fill="#62A9D6" transform="translate(544,192)"/>
<path d="M0 0 C1.41750563 0.11509661 2.83401169 0.24253658 4.25 0.375 C5.03890625 0.44460938 5.8278125 0.51421875 6.640625 0.5859375 C9 1 9 1 13 3 C9.04 3 5.08 3 1 3 C0.67 2.01 0.34 1.02 0 0 Z " fill="#4E9CCF" transform="translate(422,818)"/>
<path d="M0 0 C0.66 0.33 1.32 0.66 2 1 C0.02 3.31 -1.96 5.62 -4 8 C-4.99 7.34 -5.98 6.68 -7 6 C-4.69 4.02 -2.38 2.04 0 0 Z " fill="#4B99CC" transform="translate(701,756)"/>
<path d="M0 0 C0.33 0.66 0.66 1.32 1 2 C0.00390625 4.1640625 0.00390625 4.1640625 -1.4375 6.625 C-1.91058594 7.44226563 -2.38367188 8.25953125 -2.87109375 9.1015625 C-3.24363281 9.72804688 -3.61617187 10.35453125 -4 11 C-4.33 9.68 -4.66 8.36 -5 7 C-4.34 7 -3.68 7 -3 7 C-2.87625 6.030625 -2.7525 5.06125 -2.625 4.0625 C-2.41875 3.051875 -2.2125 2.04125 -2 1 C-1.34 0.67 -0.68 0.34 0 0 Z " fill="#4997CA" transform="translate(844,693)"/>
<path d="M0 0 C8.71428571 1.85714286 8.71428571 1.85714286 11 5 C10.01 5.495 10.01 5.495 9 6 C6.8359375 5.00390625 6.8359375 5.00390625 4.375 3.5625 C3.55773437 3.08941406 2.74046875 2.61632812 1.8984375 2.12890625 C1.27195312 1.75636719 0.64546875 1.38382813 0 1 C0 0.67 0 0.34 0 0 Z " fill="#4F9BCF" transform="translate(663,655)"/>
<path d="M0 0 C0.66 0.99 1.32 1.98 2 3 C0.68 5.31 -0.64 7.62 -2 10 C-2.66 10 -3.32 10 -4 10 C-2.8905928 6.51329166 -1.73662334 3.22515763 0 0 Z " fill="#4394C9" transform="translate(417,458)"/>
<path d="M0 0 C2.375 1 2.375 1 5 3 C6.04768041 5.66921593 6.48684546 8.15432483 7 11 C4.08156555 8.373409 2.05482685 5.33023661 0 2 C0 1.34 0 0.68 0 0 Z " fill="#4F9CCE" transform="translate(757,324)"/>
<path d="M0 0 C0.6875 1.6875 0.6875 1.6875 1 4 C-0.25 6.6875 -0.25 6.6875 -2 9 C-2.99 9.33 -3.98 9.66 -5 10 C-3.66511872 6.40608886 -2.03977277 3.24509304 0 0 Z " fill="#4998CA" transform="translate(181,299)"/>
<path d="M0 0 C1.0546875 1.859375 1.0546875 1.859375 2 4 C1.125 6.25 1.125 6.25 0 8 C-0.66 8 -1.32 8 -2 8 C-2.33 9.32 -2.66 10.64 -3 12 C-4 10 -4 10 -3.22265625 7.6171875 C-2.83980469 6.71226562 -2.45695312 5.80734375 -2.0625 4.875 C-1.68222656 3.96492188 -1.30195313 3.05484375 -0.91015625 2.1171875 C-0.60980469 1.41851562 -0.30945313 0.71984375 0 0 Z " fill="#4B99CC" transform="translate(497,281)"/>
<path d="M0 0 C0.33 1.32 0.66 2.64 1 4 C-1.97 6.475 -1.97 6.475 -5 9 C-5 4.61031544 -2.87194899 3.23094261 0 0 Z " fill="#4594C8" transform="translate(209,259)"/>
<path d="M0 0 C-3.19990508 2.74277578 -6.00499382 4.6302836 -10 6 C-7.82304683 0.97626191 -5.41372848 -0.29263397 0 0 Z " fill="#4B99CD" transform="translate(355,231)"/>
<path d="M0 0 C4.05281712 1.22527029 7.44360764 2.69880494 11 5 C9 6 9 6 7.08984375 5.546875 C6.37957031 5.28390625 5.66929687 5.0209375 4.9375 4.75 C4.22464844 4.49734375 3.51179687 4.2446875 2.77734375 3.984375 C1 3 1 3 0 0 Z " fill="#4E99CC" transform="translate(682,162)"/>
<path d="M0 0 C0.8353125 0.556875 0.8353125 0.556875 1.6875 1.125 C0.42142393 1.65729326 -0.85060412 2.17544544 -2.125 2.6875 C-2.83269531 2.97753906 -3.54039062 3.26757812 -4.26953125 3.56640625 C-6.3125 4.125 -6.3125 4.125 -9.3125 3.125 C-8.6525 3.125 -7.9925 3.125 -7.3125 3.125 C-7.3125 2.465 -7.3125 1.805 -7.3125 1.125 C-2.88173077 -1.09038462 -2.88173077 -1.09038462 0 0 Z " fill="#4C9ACC" transform="translate(635.3125,877.875)"/>
<path d="M0 0 C1.8161982 0.42188459 3.62794073 0.86299165 5.4375 1.3125 C6.44683594 1.55613281 7.45617187 1.79976562 8.49609375 2.05078125 C9.32238281 2.36402344 10.14867187 2.67726563 11 3 C11.33 3.99 11.66 4.98 12 6 C10.55903414 5.57405412 9.12231288 5.13373367 7.6875 4.6875 C6.88699219 4.44386719 6.08648437 4.20023438 5.26171875 3.94921875 C2.90035427 2.95817977 1.66120007 1.91925057 0 0 Z " fill="#509BCE" transform="translate(330,860)"/>
<path d="M0 0 C-5.445 1.485 -5.445 1.485 -11 3 C-10.67 2.01 -10.34 1.02 -10 0 C-5.4904309 -2.10446558 -4.62748216 -2.31374108 0 0 Z " fill="#4897CB" transform="translate(438,618)"/>
<path d="M0 0 C3.15330554 0.60694155 5.18888867 1.6416665 7.75 3.5625 C8.67039062 4.24505859 8.67039062 4.24505859 9.609375 4.94140625 C10.29773438 5.46541016 10.29773438 5.46541016 11 6 C10.01 6.495 10.01 6.495 9 7 C4.89593075 5.34090818 2.34804392 3.78295966 0 0 Z " fill="#53A0D2" transform="translate(630,579)"/>
<path d="M0 0 C3.0916909 2.52956528 3.90931332 5.22454612 5 9 C2 8 2 8 0.25 5.0625 C-0.1625 4.051875 -0.575 3.04125 -1 2 C-0.67 1.34 -0.34 0.68 0 0 Z " fill="#4A99CD" transform="translate(606,479)"/>
<path d="M0 0 C1.0625 1.875 1.0625 1.875 2 4 C1.67 4.66 1.34 5.32 1 6 C0.34 6 -0.32 6 -1 6 C-1.33 7.65 -1.66 9.3 -2 11 C-2.66 11 -3.32 11 -4 11 C-3.52269162 9.5410574 -3.04308958 8.08286504 -2.5625 6.625 C-2.29566406 5.81289063 -2.02882813 5.00078125 -1.75390625 4.1640625 C-1 2 -1 2 0 0 Z " fill="#519ED0" transform="translate(459,372)"/>
<path d="M0 0 C3.80984844 2.77079887 4.06840752 6.62868145 5 11 C2.65808437 8.8709858 1.16445046 6.95591271 0 4 C0 2.68 0 1.36 0 0 Z " fill="#4797CC" transform="translate(769,341)"/>
<path d="M0 0 C-0.33 0.66 -0.66 1.32 -1 2 C-4.47325181 3.1577506 -7.36067448 3.06866652 -11 3 C-4.33333333 -1.44444444 -4.33333333 -1.44444444 0 0 Z " fill="#4F9CCE" transform="translate(615,809)"/>
<path d="M0 0 C-3.53411321 2.12046792 -6.94393835 2.53199289 -11 3 C-10.67 2.01 -10.34 1.02 -10 0 C-6.30458414 -0.95024979 -3.69541586 -0.95024979 0 0 Z " fill="#4B9BCF" transform="translate(243,623)"/>
<path d="M0 0 C0.6875 1.6875 0.6875 1.6875 1 4 C-0.3125 6.75 -0.3125 6.75 -2 9 C-2.66 9 -3.32 9 -4 9 C-2.94124926 5.59687262 -1.99097846 2.98646769 0 0 Z " fill="#4392C7" transform="translate(351,579)"/>
<path d="M0 0 C0 4.24645065 -1.81750806 6.38524772 -4 10 C-4.33 9.34 -4.66 8.68 -5 8 C-2.51612903 1.25806452 -2.51612903 1.25806452 0 0 Z " fill="#4D9ACC" transform="translate(244,338)"/>
<path d="M0 0 C0 0.99 0 1.98 0 3 C-4.455 3.495 -4.455 3.495 -9 4 C-8.01 3.67 -7.02 3.34 -6 3 C-6 2.34 -6 1.68 -6 1 C-3.92446352 0.4465236 -2.15634036 0 0 0 Z " fill="#4695C9" transform="translate(595,889)"/>
<path d="M0 0 C3.55780196 0.60990891 6.6828589 1.5783681 10 3 C8.3125 4.125 8.3125 4.125 6 5 C3.3125 4.3125 3.3125 4.3125 1 3 C0.67 2.01 0.34 1.02 0 0 Z " fill="#4C9ACD" transform="translate(379,803)"/>
<path d="M0 0 C3.37503669 1.1858237 5.64722731 2.27573689 8 5 C2.25 4.25 2.25 4.25 0 2 C0 1.34 0 0.68 0 0 Z " fill="#4697CC" transform="translate(338,782)"/>
<path d="M0 0 C0.33 0 0.66 0 1 0 C0.67 2.31 0.34 4.62 0 7 C-0.66 7 -1.32 7 -2 7 C-2.33 7.66 -2.66 8.32 -3 9 C-2.25 2.25 -2.25 2.25 0 0 Z " fill="#4193CA" transform="translate(804,599)"/>
<path d="M0 0 C0.88492145 2.47778006 1.11637742 3.66056586 0.25 6.1875 C-1 8 -1 8 -4 9 C-2.94124926 5.59687262 -1.99097846 2.98646769 0 0 Z " fill="#4B99CD" transform="translate(362,559)"/>
<path d="M0 0 C-3.18762365 2.12508244 -5.26512223 2.5020163 -9 3 C-9.33 2.34 -9.66 1.68 -10 1 C-6.21812119 -0.83691257 -4.05431692 -1.15837626 0 0 Z " fill="#4998CD" transform="translate(419,204)"/>
<path d="M0 0 C2.97 0.99 5.94 1.98 9 3 C5 5 5 5 2.8125 4.3125 C1 3 1 3 0 0 Z " fill="#4B9ACE" transform="translate(370,799)"/>
<path d="M0 0 C5.75 1.75 5.75 1.75 8 4 C6.25 4.6875 6.25 4.6875 4 5 C1.75 3.6875 1.75 3.6875 0 2 C0 1.34 0 0.68 0 0 Z " fill="#4C9ACF" transform="translate(362,795)"/>
<path d="M0 0 C0.66 0.33 1.32 0.66 2 1 C-1.32307692 4.93846154 -1.32307692 4.93846154 -4.75 5.25 C-5.4925 5.1675 -6.235 5.085 -7 5 C-4.702779 3.25728062 -2.40133271 1.60088848 0 0 Z " fill="#4A99CC" transform="translate(652,789)"/>
<path d="M0 0 C4 1 4 1 5.8125 3.4375 C6.204375 4.283125 6.59625 5.12875 7 6 C6.67 6.66 6.34 7.32 6 8 C4.02 5.36 2.04 2.72 0 0 Z " fill="#4A97CB" transform="translate(210,766)"/>
<path d="M0 0 C0.66 0.99 1.32 1.98 2 3 C1.125 5.6875 1.125 5.6875 0 8 C-0.99 7.67 -1.98 7.34 -3 7 C-1.125 2.25 -1.125 2.25 0 0 Z " fill="#4295CA" transform="translate(302,667)"/>
<path d="M0 0 C3.4375 0.8125 3.4375 0.8125 7 2 C7.33 2.99 7.66 3.98 8 5 C5.03 4.01 2.06 3.02 -1 2 C-0.67 1.34 -0.34 0.68 0 0 Z " fill="#4896CA" transform="translate(615,631)"/>
<path d="M0 0 C0.66 0.99 1.32 1.98 2 3 C1.3125 5.625 1.3125 5.625 0 8 C-0.99 8.33 -1.98 8.66 -3 9 C-2.01 6.03 -1.02 3.06 0 0 Z " fill="#4696CB" transform="translate(98,609)"/>
<path d="M0 0 C0.66 0 1.32 0 2 0 C1.01 2.97 0.02 5.94 -1 9 C-1.33 9 -1.66 9 -2 9 C-1.125 1.125 -1.125 1.125 0 0 Z " fill="#4897CA" transform="translate(873,461)"/>
<path d="M0 0 C2.08954032 4.17908064 2.16552619 4.80410573 1 9 C0.01 9 -0.98 9 -2 9 C-1.34 6.03 -0.68 3.06 0 0 Z " fill="#4B9BCF" transform="translate(146,375)"/>
<path d="M0 0 C2.6855594 2.6855594 3.06049974 5.37621328 4 9 C1 8 1 8 -0.25 5.625 C-1 3 -1 3 0 0 Z " fill="#4A9ACE" transform="translate(533,325)"/>
<path d="M0 0 C6.57142857 4 6.57142857 4 8 8 C1.42857143 4 1.42857143 4 0 0 Z " fill="#4293C7" transform="translate(788,246)"/>
<path d="M0 0 C3.82097239 0.53069061 6.06171403 1.49701566 9 4 C6 5 6 5 3.8125 4.0625 C3.214375 3.711875 2.61625 3.36125 2 3 C2 2.34 2 1.68 2 1 C1.34 0.67 0.68 0.34 0 0 Z " fill="#4D9ACC" transform="translate(659,151)"/>
<path d="M0 0 C-0.33 0.66 -0.66 1.32 -1 2 C-3.375 2.75 -3.375 2.75 -6 3 C-6.99 2.34 -7.98 1.68 -9 1 C-5.57367167 -0.61798838 -3.61944899 -1.34053666 0 0 Z " fill="#4E9CCF" transform="translate(392,136)"/>
<path d="M0 0 C0.33 1.32 0.66 2.64 1 4 C-0.98 5.32 -2.96 6.64 -5 8 C-3.62845496 5.04590299 -2.01136276 2.55991624 0 0 Z " fill="#4D9ACC" transform="translate(753,702)"/>
<path d="M0 0 C0.6875 1.8125 0.6875 1.8125 1 4 C-0.3125 5.75 -0.3125 5.75 -2 7 C-2.66 7 -3.32 7 -4 7 C-2.92598892 4.08482708 -2.22189824 2.22189824 0 0 Z " fill="#4C9ACD" transform="translate(761,691)"/>
<path d="M0 0 C2.31 1.65 4.62 3.3 7 5 C6.01 5.33 5.02 5.66 4 6 C1.8125 4.75 1.8125 4.75 0 3 C0 2.01 0 1.02 0 0 Z " fill="#4594CA" transform="translate(195,555)"/>
<path d="M0 0 C2.15377564 2.62198774 3.40072174 4.64404172 4 8 C2.0625 7.1875 2.0625 7.1875 0 6 C-1 3 -1 3 0 0 Z " fill="#4C9ACD" transform="translate(623,510)"/>
<path d="M0 0 C0.66 1.32 1.32 2.64 2 4 C0.625 6 0.625 6 -1 8 C-1.66 8 -2.32 8 -3 8 C-1.125 2.25 -1.125 2.25 0 0 Z " fill="#4596CB" transform="translate(402,486)"/>
<path d="M0 0 C2.15377564 2.62198774 3.40072174 4.64404172 4 8 C3.01 7.67 2.02 7.34 1 7 C-0.1875 3.9375 -0.1875 3.9375 -1 1 C-0.67 0.67 -0.34 0.34 0 0 Z " fill="#499ACD" transform="translate(582,432)"/>
<path d="M0 0 C0.33 0.66 0.66 1.32 1 2 C0.06421005 4.35981813 -0.93347808 6.69631264 -2 9 C-2.33 9 -2.66 9 -3 9 C-2.4140625 2.84765625 -2.4140625 2.84765625 -2 1 C-1.34 0.67 -0.68 0.34 0 0 Z " fill="#4B98CB" transform="translate(908,383)"/>
<path d="M0 0 C0.99 0.33 1.98 0.66 3 1 C4.1875 4.0625 4.1875 4.0625 5 7 C4.01 7.495 4.01 7.495 3 8 C0 2.25 0 2.25 0 0 Z " fill="#4596CC" transform="translate(774,352)"/>
<path d="M0 0 C2.6855594 2.6855594 3.06049974 5.37621328 4 9 C3.01 8.67 2.02 8.34 1 8 C-0.35439668 5.29120665 -0.06501451 2.99066732 0 0 Z " fill="#4A9ACF" transform="translate(508,265)"/>
<path d="M0 0 C2.97 0 5.94 0 9 0 C8.67 0.66 8.34 1.32 8 2 C5.36 2 2.72 2 0 2 C0 1.34 0 0.68 0 0 Z " fill="#4791C4" transform="translate(469,902)"/>
<path d="M0 0 C2.97 0.495 2.97 0.495 6 1 C5.67 1.66 5.34 2.32 5 3 C2.525 2.01 2.525 2.01 0 1 C0 0.67 0 0.34 0 0 Z " fill="#4590C3" transform="translate(416,893)"/>
<path d="M0 0 C1.65 0 3.3 0 5 0 C5 0.33 5 0.66 5 1 C3.35 1 1.7 1 0 1 C0 0.67 0 0.34 0 0 Z " fill="#4692C4" transform="translate(448,120)"/>
<path d="M0 0 C0.66 0.66 1.32 1.32 2 2 C1.01 1.67 0.02 1.34 -1 1 C-0.67 0.67 -0.34 0.34 0 0 Z " fill="#4696C8" transform="translate(479,824)"/>
<path d="M0 0 C0.99 0.495 0.99 0.495 2 1 C1.01 1.495 1.01 1.495 0 2 C0 1.34 0 0.68 0 0 Z " fill="#4791C5" transform="translate(588,894)"/>
<path d="M0 0 C3 1 3 1 3 1 Z " fill="#458FC3" transform="translate(581,895)"/>
<path d="M0 0 C0.99 0.495 0.99 0.495 2 1 C1.01 1.495 1.01 1.495 0 2 C0 1.34 0 0.68 0 0 Z " fill="#4790C2" transform="translate(344,869)"/>
<path d="M0 0 C3 1 3 1 3 1 Z " fill="#4795C7" transform="translate(425,816)"/>
<path d="M0 0 C0.66 0.66 1.32 1.32 2 2 C1.34 2 0.68 2 0 2 C0 1.34 0 0.68 0 0 Z " fill="#4794C8" transform="translate(452,390)"/>
<path d="M0 0 C3 1 3 1 3 1 Z " fill="#4896CC" transform="translate(555,198)"/>
<path d="M0 0 C3 1 3 1 3 1 Z " fill="#4A98CC" transform="translate(451,198)"/>
<path d="M0 0 C0.33 0.66 0.66 1.32 1 2 C0.34 1.67 -0.32 1.34 -1 1 C-0.67 0.67 -0.34 0.34 0 0 Z " fill="#4892C5" transform="translate(404,128)"/>
<path d="M0 0 C2 1 2 1 2 1 Z " fill="#448DC3" transform="translate(509,903)"/>
<path d="M0 0 C2 1 2 1 2 1 Z " fill="#4792C4" transform="translate(465,901)"/>
<path d="M0 0 C2 1 2 1 2 1 Z " fill="#4690C1" transform="translate(618,886)"/>
<path d="M0 0 C2 1 2 1 2 1 Z " fill="#4694C8" transform="translate(500,826)"/>
<path d="M0 0 C2 1 2 1 2 1 Z " fill="#4594C7" transform="translate(539,824)"/>
<path d="M0 0 C2 1 2 1 2 1 Z " fill="#4996C9" transform="translate(536,824)"/>
<path d="M0 0 C2 1 2 1 2 1 Z " fill="#438FC2" transform="translate(422,816)"/>
<path d="M0 0 C2 1 2 1 2 1 Z " fill="#478BB8" transform="translate(81,645)"/>
<path d="M0 0 C2 1 2 1 2 1 Z " fill="#4692C7" transform="translate(554,613)"/>
<path d="M0 0 C2 1 2 1 2 1 Z " fill="#4693C6" transform="translate(457,613)"/>
<path d="" fill="#4997CC" transform="translate(0,0)"/>
<path d="" fill="#4696CA" transform="translate(0,0)"/>
<path d="" fill="#4696CD" transform="translate(0,0)"/>
<path d="" fill="#4792C5" transform="translate(0,0)"/>
<path d="M0 0 C2 1 2 1 2 1 Z " fill="#4897CC" transform="translate(812,471)"/>
<path d="" fill="#4592C9" transform="translate(0,0)"/>
<path d="" fill="#4794C9" transform="translate(0,0)"/>
<path d="M0 0 C2 1 2 1 2 1 Z " fill="#4795C8" transform="translate(881,360)"/>
<path d="" fill="#4590C6" transform="translate(0,0)"/>
<path d="M0 0 C2 1 2 1 2 1 Z " fill="#4592C8" transform="translate(246,339)"/>
<path d="M0 0 C2 1 2 1 2 1 Z " fill="#4996C6" transform="translate(310,263)"/>
<path d="M0 0 C2 1 2 1 2 1 Z " fill="#4795CB" transform="translate(652,231)"/>
<path d="" fill="#4995CB" transform="translate(0,0)"/>
<path d="M0 0 C2 1 2 1 2 1 Z " fill="#4896CC" transform="translate(591,206)"/>
<path d="M0 0 C2 1 2 1 2 1 Z " fill="#4690C3" transform="translate(355,145)"/>
<path d="M0 0 C2 1 2 1 2 1 Z " fill="#4691C2" transform="translate(598,128)"/>
<path d="M0 0 C2 1 2 1 2 1 Z " fill="#4993C4" transform="translate(408,128)"/>
<path d="M0 0 C2 1 2 1 2 1 Z " fill="#4792C3" transform="translate(558,120)"/>
<path d="" fill="#303A3F" transform="translate(0,0)"/>
<path d="" fill="#4591C4" transform="translate(0,0)"/>
<path d="" fill="#4594C8" transform="translate(0,0)"/>
<path d="" fill="#448EC5" transform="translate(0,0)"/>
<path d="" fill="#4891C4" transform="translate(0,0)"/>
<path d="" fill="#4794C6" transform="translate(0,0)"/>
<path d="" fill="#4791C3" transform="translate(0,0)"/>
<path d="" fill="#4A92C4" transform="translate(0,0)"/>
<path d="" fill="#448FC3" transform="translate(0,0)"/>
<path d="" fill="#4892C5" transform="translate(0,0)"/>
<path d="" fill="#4A95C8" transform="translate(0,0)"/>
<path d="" fill="#4790C4" transform="translate(0,0)"/>
<path d="" fill="#458FC2" transform="translate(0,0)"/>
<path d="" fill="#478FC3" transform="translate(0,0)"/>
<path d="" fill="#458FC2" transform="translate(0,0)"/>
<path d="" fill="#4791C3" transform="translate(0,0)"/>
<path d="" fill="#4590C4" transform="translate(0,0)"/>
<path d="" fill="#458EC0" transform="translate(0,0)"/>
<path d="" fill="#468FC1" transform="translate(0,0)"/>
<path d="" fill="#478FBF" transform="translate(0,0)"/>
<path d="" fill="#458FC2" transform="translate(0,0)"/>
<path d="" fill="#4690C4" transform="translate(0,0)"/>
<path d="" fill="#428BC0" transform="translate(0,0)"/>
<path d="" fill="#4691C3" transform="translate(0,0)"/>
<path d="" fill="#458EC2" transform="translate(0,0)"/>
<path d="" fill="#4791C2" transform="translate(0,0)"/>
<path d="" fill="#428FBF" transform="translate(0,0)"/>
<path d="" fill="#468FC1" transform="translate(0,0)"/>
<path d="" fill="#478FC2" transform="translate(0,0)"/>
<path d="" fill="#478EC0" transform="translate(0,0)"/>
<path d="" fill="#4690C1" transform="translate(0,0)"/>
<path d="" fill="#4690C4" transform="translate(0,0)"/>
<path d="" fill="#478FC3" transform="translate(0,0)"/>
<path d="" fill="#4892C2" transform="translate(0,0)"/>
<path d="" fill="#4891C3" transform="translate(0,0)"/>
<path d="" fill="#4995C6" transform="translate(0,0)"/>
<path d="" fill="#448FC3" transform="translate(0,0)"/>
<path d="" fill="#448FC1" transform="translate(0,0)"/>
<path d="" fill="#468DC0" transform="translate(0,0)"/>
<path d="" fill="#448DC0" transform="translate(0,0)"/>
<path d="" fill="#4594C8" transform="translate(0,0)"/>
<path d="" fill="#4896CA" transform="translate(0,0)"/>
<path d="" fill="#4494C8" transform="translate(0,0)"/>
<path d="" fill="#4694C8" transform="translate(0,0)"/>
<path d="" fill="#458FC1" transform="translate(0,0)"/>
<path d="" fill="#4794C9" transform="translate(0,0)"/>
<path d="" fill="#4894C8" transform="translate(0,0)"/>
<path d="" fill="#4B94C8" transform="translate(0,0)"/>
<path d="" fill="#4695C7" transform="translate(0,0)"/>
<path d="" fill="#4794C7" transform="translate(0,0)"/>
<path d="" fill="#4A96C7" transform="translate(0,0)"/>
<path d="" fill="#4896C8" transform="translate(0,0)"/>
<path d="" fill="#468EC3" transform="translate(0,0)"/>
<path d="" fill="#4594C6" transform="translate(0,0)"/>
<path d="" fill="#4693C8" transform="translate(0,0)"/>
<path d="" fill="#4695C5" transform="translate(0,0)"/>
<path d="" fill="#4695C8" transform="translate(0,0)"/>
<path d="" fill="#438EBE" transform="translate(0,0)"/>
<path d="" fill="#468EC1" transform="translate(0,0)"/>
<path d="" fill="#4594CA" transform="translate(0,0)"/>
<path d="" fill="#4796CB" transform="translate(0,0)"/>
<path d="" fill="#4394C8" transform="translate(0,0)"/>
<path d="" fill="#4492C6" transform="translate(0,0)"/>
<path d="" fill="#4695CA" transform="translate(0,0)"/>
<path d="" fill="#458DBF" transform="translate(0,0)"/>
<path d="" fill="#448FC3" transform="translate(0,0)"/>
<path d="" fill="#438EC1" transform="translate(0,0)"/>
<path d="" fill="#448DC0" transform="translate(0,0)"/>
<path d="" fill="#448DC1" transform="translate(0,0)"/>
<path d="" fill="#458FC1" transform="translate(0,0)"/>
<path d="" fill="#4690C5" transform="translate(0,0)"/>
<path d="" fill="#448FC2" transform="translate(0,0)"/>
<path d="" fill="#448FC4" transform="translate(0,0)"/>
<path d="" fill="#4591C6" transform="translate(0,0)"/>
<path d="" fill="#4590C4" transform="translate(0,0)"/>
<path d="" fill="#458FC3" transform="translate(0,0)"/>
<path d="" fill="#4691C3" transform="translate(0,0)"/>
<path d="" fill="#4392C6" transform="translate(0,0)"/>
<path d="" fill="#4395CA" transform="translate(0,0)"/>
<path d="" fill="#4B97CC" transform="translate(0,0)"/>
<path d="" fill="#4898CE" transform="translate(0,0)"/>
<path d="" fill="#4695CA" transform="translate(0,0)"/>
<path d="" fill="#4995C8" transform="translate(0,0)"/>
<path d="" fill="#4695CD" transform="translate(0,0)"/>
<path d="" fill="#4793C7" transform="translate(0,0)"/>
<path d="" fill="#4895CA" transform="translate(0,0)"/>
<path d="" fill="#4893C6" transform="translate(0,0)"/>
<path d="" fill="#4893C7" transform="translate(0,0)"/>
<path d="" fill="#4796CA" transform="translate(0,0)"/>
<path d="" fill="#4593C9" transform="translate(0,0)"/>
<path d="" fill="#408FC3" transform="translate(0,0)"/>
<path d="" fill="#4A96CC" transform="translate(0,0)"/>
<path d="" fill="#4795C9" transform="translate(0,0)"/>
<path d="" fill="#4995C7" transform="translate(0,0)"/>
<path d="" fill="#4592C4" transform="translate(0,0)"/>
<path d="" fill="#4794C9" transform="translate(0,0)"/>
<path d="" fill="#4794C9" transform="translate(0,0)"/>
<path d="" fill="#4996C9" transform="translate(0,0)"/>
<path d="" fill="#4899CF" transform="translate(0,0)"/>
<path d="" fill="#4992C2" transform="translate(0,0)"/>
<path d="" fill="#468FC1" transform="translate(0,0)"/>
<path d="" fill="#4994C7" transform="translate(0,0)"/>
<path d="" fill="#4999CD" transform="translate(0,0)"/>
<path d="" fill="#4895CA" transform="translate(0,0)"/>
<path d="" fill="#4A99CD" transform="translate(0,0)"/>
<path d="" fill="#4994C9" transform="translate(0,0)"/>
<path d="" fill="#4793CA" transform="translate(0,0)"/>
<path d="" fill="#4693CA" transform="translate(0,0)"/>
<path d="" fill="#4696C7" transform="translate(0,0)"/>
<path d="" fill="#4491C4" transform="translate(0,0)"/>
<path d="" fill="#4996CB" transform="translate(0,0)"/>
<path d="" fill="#4898CE" transform="translate(0,0)"/>
<path d="" fill="#4493CA" transform="translate(0,0)"/>
<path d="" fill="#4B98CD" transform="translate(0,0)"/>
<path d="" fill="#4796CB" transform="translate(0,0)"/>
<path d="" fill="#4C99CE" transform="translate(0,0)"/>
<path d="" fill="#4996CD" transform="translate(0,0)"/>
<path d="" fill="#4A96C7" transform="translate(0,0)"/>
<path d="" fill="#4497CD" transform="translate(0,0)"/>
<path d="" fill="#4E9BD1" transform="translate(0,0)"/>
<path d="" fill="#4794C9" transform="translate(0,0)"/>
<path d="" fill="#4693C5" transform="translate(0,0)"/>
<path d="" fill="#4995CB" transform="translate(0,0)"/>
<path d="" fill="#4B97CC" transform="translate(0,0)"/>
<path d="" fill="#438DC2" transform="translate(0,0)"/>
<path d="" fill="#4791C3" transform="translate(0,0)"/>
<path d="" fill="#4999CC" transform="translate(0,0)"/>
<path d="" fill="#4791C5" transform="translate(0,0)"/>
<path d="" fill="#4590C5" transform="translate(0,0)"/>
<path d="" fill="#4A95C9" transform="translate(0,0)"/>
<path d="" fill="#4896CB" transform="translate(0,0)"/>
<path d="" fill="#4799CD" transform="translate(0,0)"/>
<path d="" fill="#4797CB" transform="translate(0,0)"/>
<path d="" fill="#4893C6" transform="translate(0,0)"/>
<path d="" fill="#4A97CD" transform="translate(0,0)"/>
<path d="" fill="#4692C6" transform="translate(0,0)"/>
<path d="" fill="#4A98CC" transform="translate(0,0)"/>
<path d="" fill="#4491C5" transform="translate(0,0)"/>
<path d="" fill="#4293C7" transform="translate(0,0)"/>
<path d="" fill="#4997CE" transform="translate(0,0)"/>
<path d="" fill="#4B95CA" transform="translate(0,0)"/>
<path d="" fill="#4999CE" transform="translate(0,0)"/>
<path d="" fill="#4997C8" transform="translate(0,0)"/>
<path d="" fill="#4896C9" transform="translate(0,0)"/>
<path d="" fill="#4893C7" transform="translate(0,0)"/>
<path d="" fill="#4898CC" transform="translate(0,0)"/>
<path d="" fill="#4897CD" transform="translate(0,0)"/>
<path d="" fill="#4897CD" transform="translate(0,0)"/>
<path d="" fill="#4997C9" transform="translate(0,0)"/>
<path d="" fill="#4795C8" transform="translate(0,0)"/>
<path d="" fill="#4894C7" transform="translate(0,0)"/>
<path d="" fill="#428EC3" transform="translate(0,0)"/>
<path d="" fill="#4792C6" transform="translate(0,0)"/>
<path d="" fill="#4994C8" transform="translate(0,0)"/>
<path d="" fill="#4594CA" transform="translate(0,0)"/>
<path d="" fill="#4592C8" transform="translate(0,0)"/>
<path d="" fill="#4795CA" transform="translate(0,0)"/>
<path d="" fill="#4793C7" transform="translate(0,0)"/>
<path d="" fill="#4A98CC" transform="translate(0,0)"/>
<path d="" fill="#4593C6" transform="translate(0,0)"/>
<path d="" fill="#4491C4" transform="translate(0,0)"/>
<path d="" fill="#4B9CD0" transform="translate(0,0)"/>
<path d="" fill="#4A97CE" transform="translate(0,0)"/>
<path d="" fill="#4B98CD" transform="translate(0,0)"/>
<path d="" fill="#4794C9" transform="translate(0,0)"/>
<path d="" fill="#4B99CA" transform="translate(0,0)"/>
<path d="" fill="#4695CB" transform="translate(0,0)"/>
<path d="" fill="#4897CB" transform="translate(0,0)"/>
<path d="" fill="#4790C3" transform="translate(0,0)"/>
<path d="" fill="#4B99CF" transform="translate(0,0)"/>
<path d="" fill="#4393C9" transform="translate(0,0)"/>
<path d="" fill="#4C97CD" transform="translate(0,0)"/>
<path d="" fill="#4796CC" transform="translate(0,0)"/>
<path d="" fill="#4897CD" transform="translate(0,0)"/>
<path d="" fill="#4697CB" transform="translate(0,0)"/>
<path d="" fill="#4794C7" transform="translate(0,0)"/>
<path d="" fill="#4694C7" transform="translate(0,0)"/>
<path d="" fill="#4691C6" transform="translate(0,0)"/>
<path d="" fill="#4894C9" transform="translate(0,0)"/>
<path d="" fill="#4895CB" transform="translate(0,0)"/>
<path d="" fill="#4694C9" transform="translate(0,0)"/>
<path d="" fill="#4895C9" transform="translate(0,0)"/>
<path d="" fill="#4591C3" transform="translate(0,0)"/>
<path d="" fill="#4593C6" transform="translate(0,0)"/>
<path d="" fill="#4691C2" transform="translate(0,0)"/>
<path d="" fill="#4692C7" transform="translate(0,0)"/>
<path d="" fill="#4795CB" transform="translate(0,0)"/>
<path d="" fill="#4593C9" transform="translate(0,0)"/>
<path d="" fill="#4896CC" transform="translate(0,0)"/>
<path d="" fill="#458FC1" transform="translate(0,0)"/>
<path d="" fill="#4794CA" transform="translate(0,0)"/>
<path d="" fill="#4690C1" transform="translate(0,0)"/>
<path d="" fill="#4290C1" transform="translate(0,0)"/>
<path d="" fill="#4797CA" transform="translate(0,0)"/>
<path d="" fill="#4790C1" transform="translate(0,0)"/>
<path d="" fill="#4991C3" transform="translate(0,0)"/>
<path d="" fill="#4594C9" transform="translate(0,0)"/>
<path d="" fill="#4798CC" transform="translate(0,0)"/>
<path d="" fill="#4896CD" transform="translate(0,0)"/>
<path d="" fill="#4995CE" transform="translate(0,0)"/>
<path d="" fill="#4494C8" transform="translate(0,0)"/>
<path d="" fill="#4692C6" transform="translate(0,0)"/>
<path d="" fill="#4792C9" transform="translate(0,0)"/>
<path d="" fill="#4693C9" transform="translate(0,0)"/>
<path d="" fill="#4896C9" transform="translate(0,0)"/>
<path d="" fill="#4793CC" transform="translate(0,0)"/>
<path d="" fill="#4794CC" transform="translate(0,0)"/>
<path d="" fill="#4695CC" transform="translate(0,0)"/>
<path d="" fill="#4694CA" transform="translate(0,0)"/>
<path d="" fill="#4695CA" transform="translate(0,0)"/>
<path d="" fill="#4894CB" transform="translate(0,0)"/>
<path d="" fill="#4A95CC" transform="translate(0,0)"/>
<path d="" fill="#4999CB" transform="translate(0,0)"/>
<path d="" fill="#428EC1" transform="translate(0,0)"/>
<path d="" fill="#428DC0" transform="translate(0,0)"/>
<path d="" fill="#4793C8" transform="translate(0,0)"/>
<path d="" fill="#4391C8" transform="translate(0,0)"/>
<path d="" fill="#448EBC" transform="translate(0,0)"/>
<path d="" fill="#4A96CA" transform="translate(0,0)"/>
<path d="" fill="#4795CC" transform="translate(0,0)"/>
<path d="" fill="#4693C8" transform="translate(0,0)"/>
<path d="" fill="#4795CC" transform="translate(0,0)"/>
<path d="" fill="#4896CB" transform="translate(0,0)"/>
<path d="" fill="#4895CC" transform="translate(0,0)"/>
<path d="" fill="#438DBE" transform="translate(0,0)"/>
<path d="" fill="#4997CB" transform="translate(0,0)"/>
<path d="" fill="#4B96C9" transform="translate(0,0)"/>
<path d="" fill="#4A99CB" transform="translate(0,0)"/>
<path d="" fill="#4998CB" transform="translate(0,0)"/>
<path d="" fill="#4392C7" transform="translate(0,0)"/>
<path d="" fill="#4A98CE" transform="translate(0,0)"/>
<path d="" fill="#4A97CC" transform="translate(0,0)"/>
<path d="" fill="#4290C1" transform="translate(0,0)"/>
<path d="" fill="#458FC3" transform="translate(0,0)"/>
<path d="" fill="#4491C2" transform="translate(0,0)"/>
<path d="" fill="#458FC1" transform="translate(0,0)"/>
<path d="" fill="#4391C0" transform="translate(0,0)"/>
<path d="" fill="#4791C3" transform="translate(0,0)"/>
<path d="" fill="#4492C4" transform="translate(0,0)"/>
<path d="" fill="#428EC2" transform="translate(0,0)"/>
<path d="" fill="#4891C2" transform="translate(0,0)"/>
<path d="" fill="#4793C4" transform="translate(0,0)"/>
<path d="" fill="#4792C5" transform="translate(0,0)"/>
<path d="" fill="#4A93C4" transform="translate(0,0)"/>
<path d="" fill="#4893C3" transform="translate(0,0)"/>
<path d="" fill="#4794C5" transform="translate(0,0)"/>
<path d="" fill="#4491C5" transform="translate(0,0)"/>
<path d="" fill="#4695C5" transform="translate(0,0)"/>
<path d="" fill="#4693C4" transform="translate(0,0)"/>
<path d="" fill="#4893C4" transform="translate(0,0)"/>

</svg>